<?xml version="1.0" encoding="UTF-8" standalone="no"?>
<!DOCTYPE svg PUBLIC "-//W3C//DTD SVG 1.1//EN"
 "http://www.w3.org/Graphics/SVG/1.1/DTD/svg11.dtd">
<!-- Generated by graphviz version 14.1.1 (20251213.1925)
 -->
<!-- Title: ens160_basic_set_compensation Pages: 1 -->
<svg width="332pt" height="190pt"
 viewBox="0.00 0.00 332.00 190.00" xmlns="http://www.w3.org/2000/svg" xmlns:xlink="http://www.w3.org/1999/xlink">
<g id="graph0" class="graph" transform="scale(1 1) rotate(0) translate(4 186)">
<title>ens160_basic_set_compensation</title>
<!-- Node1 -->
<g id="Node000001" class="node">
<title>Node1</title>
<g id="a_Node000001"><a xlink:title="basic example set compensation">
<polygon fill="#999999" stroke="#666666" points="160.75,-101 0,-101 0,-81 160.75,-81 160.75,-101"/>
<text xml:space="preserve" text-anchor="middle" x="80.38" y="-87.5" font-family="Helvetica,sans-Serif" font-size="10.00">ens160_basic_set_compensation</text>
</a>
</g>
</g>
<!-- Node2 -->
<g id="Node000002" class="node">
<title>Node2</title>
<g id="a_Node000002"><a xlink:href="group__ens160__basic__driver.html#ga7ef0c66f813b4341d9945555d79b998c" target="_top" xlink:title="convert the humidity to the register raw data">
<polygon fill="white" stroke="#666666" points="323.75,-182 196.75,-182 196.75,-150 323.75,-150 323.75,-182"/>
<text xml:space="preserve" text-anchor="start" x="204.75" y="-168.5" font-family="Helvetica,sans-Serif" font-size="10.00">ens160_humidity_convert</text>
<text xml:space="preserve" text-anchor="middle" x="260.25" y="-156.5" font-family="Helvetica,sans-Serif" font-size="10.00">_to_register</text>
</a>
</g>
</g>
<!-- Node1&#45;&gt;Node2 -->
<g id="edge1_Node000001_Node000002" class="edge">
<title>Node1&#45;&gt;Node2</title>
<g id="a_edge1_Node000001_Node000002"><a xlink:title=" ">
<path fill="none" stroke="#63b8ff" d="M104.71,-101.35C127.96,-111.6 164.71,-127.65 196.75,-141 200.15,-142.42 203.66,-143.86 207.2,-145.31"/>
<polygon fill="#63b8ff" stroke="#63b8ff" points="205.85,-148.54 216.43,-149.06 208.48,-142.05 205.85,-148.54"/>
</a>
</g>
</g>
<!-- Node3 -->
<g id="Node000003" class="node">
<title>Node3</title>
<g id="a_Node000003"><a xlink:href="group__ens160__basic__driver.html#ga882a99cef8427c83e32c14de3cc69c5b" target="_top" xlink:title="set humidity compensation">
<polygon fill="white" stroke="#666666" points="314.38,-132 206.12,-132 206.12,-100 314.38,-100 314.38,-132"/>
<text xml:space="preserve" text-anchor="start" x="214.12" y="-118.5" font-family="Helvetica,sans-Serif" font-size="10.00">ens160_set_humidity</text>
<text xml:space="preserve" text-anchor="middle" x="260.25" y="-106.5" font-family="Helvetica,sans-Serif" font-size="10.00">_compensation</text>
</a>
</g>
</g>
<!-- Node1&#45;&gt;Node3 -->
<g id="edge2_Node000001_Node000003" class="edge">
<title>Node1&#45;&gt;Node3</title>
<g id="a_edge2_Node000001_Node000003"><a xlink:title=" ">
<path fill="none" stroke="#63b8ff" d="M156.04,-101.49C168.85,-103.29 182.06,-105.15 194.59,-106.91"/>
<polygon fill="#63b8ff" stroke="#63b8ff" points="193.97,-110.36 204.36,-108.29 194.94,-103.43 193.97,-110.36"/>
</a>
</g>
</g>
<!-- Node4 -->
<g id="Node000004" class="node">
<title>Node4</title>
<g id="a_Node000004"><a xlink:href="group__ens160__basic__driver.html#gaeca174b2155864315c6ced9a76df2cd3" target="_top" xlink:title="set temperature compensation">
<polygon fill="white" stroke="#666666" points="321.88,-82 198.62,-82 198.62,-50 321.88,-50 321.88,-82"/>
<text xml:space="preserve" text-anchor="start" x="206.62" y="-68.5" font-family="Helvetica,sans-Serif" font-size="10.00">ens160_set_temperature</text>
<text xml:space="preserve" text-anchor="middle" x="260.25" y="-56.5" font-family="Helvetica,sans-Serif" font-size="10.00">_compensation</text>
</a>
</g>
</g>
<!-- Node1&#45;&gt;Node4 -->
<g id="edge3_Node000001_Node000004" class="edge">
<title>Node1&#45;&gt;Node4</title>
<g id="a_edge3_Node000001_Node000004"><a xlink:title=" ">
<path fill="none" stroke="#63b8ff" d="M156.04,-80.51C166.26,-79.07 176.74,-77.6 186.92,-76.17"/>
<polygon fill="#63b8ff" stroke="#63b8ff" points="187.34,-79.64 196.76,-74.78 186.37,-72.71 187.34,-79.64"/>
</a>
</g>
</g>
<!-- Node5 -->
<g id="Node000005" class="node">
<title>Node5</title>
<g id="a_Node000005"><a xlink:href="group__ens160__basic__driver.html#ga496ecbe9300e649874b09c44d57ee790" target="_top" xlink:title="convert the temperature to the register raw data">
<polygon fill="white" stroke="#666666" points="312.5,-32 208,-32 208,0 312.5,0 312.5,-32"/>
<text xml:space="preserve" text-anchor="start" x="216" y="-18.5" font-family="Helvetica,sans-Serif" font-size="10.00">ens160_temperature</text>
<text xml:space="preserve" text-anchor="middle" x="260.25" y="-6.5" font-family="Helvetica,sans-Serif" font-size="10.00">_convert_to_register</text>
</a>
</g>
</g>
<!-- Node1&#45;&gt;Node5 -->
<g id="edge4_Node000001_Node000005" class="edge">
<title>Node1&#45;&gt;Node5</title>
<g id="a_edge4_Node000001_Node000005"><a xlink:title=" ">
<path fill="none" stroke="#63b8ff" d="M104.71,-80.65C127.96,-70.4 164.71,-54.35 196.75,-41 200.15,-39.58 203.66,-38.14 207.2,-36.69"/>
<polygon fill="#63b8ff" stroke="#63b8ff" points="208.48,-39.95 216.43,-32.94 205.85,-33.46 208.48,-39.95"/>
</a>
</g>
</g>
</g>
</svg>
